<svg xmlns="http://www.w3.org/2000/svg" width="600" height="450" viewBox="0 0 600 450" role="img" aria-label="Product image">
  <rect width="600" height="450" fill="#eef1f5"/>
  <rect x="0" y="0" width="600" height="450" fill="url(#g)"/>
  <defs>
    <linearGradient id="g" x1="0" y1="0" x2="0" y2="1">
      <stop offset="0" stop-color="#f4f6f9"/>
      <stop offset="1" stop-color="#e2e6ec"/>
    </linearGradient>
  </defs>
  <g fill="#c2c9d4">
    <path d="M300 150c-30 0-54 24-54 54s24 54 54 54 54-24 54-54-24-54-54-54zm0 20c19 0 34 15 34 34s-15 34-34 34-34-15-34-34 15-34 34-34z"/>
    <path d="M210 300l45-55 30 34 40-48 65 69z"/>
  </g>
  <text x="300" y="360" font-family="Arial, sans-serif" font-size="22" fill="#9aa4b2" text-anchor="middle">Add product photo</text>
</svg>
